/* XPM */
static const char* bulb[] = {
/* width height ncolors chars_per_pixel */
(char*)"32 32 7 1",
/* colors */
(char*)"  c firebrick",
(char*)". c sienna",
(char*)"X c red",
(char*)"o c NavyBlue",
(char*)"O c white",
(char*)"+ c yellow",
(char*)"@ c blue",
/* pixels */
(char*)"oooooooooooooooooooooooooooooooo",
(char*)"oooooooooooooooooooooooooooooooo",
(char*)"oooooooooooooooooooooooooooooooo",
(char*)"oooooooooooooooooooooooooooooooo",
(char*)"oooooooooooooooooooooooooooooooo",
(char*)"XXXXXXXXXXXXXXXXXXXXXXXXXXXXXXXX",
(char*)"                    X           ",
(char*)"ooooooooooooooooooooXooooooooooo",
(char*)"ooooooooooooooooooooXooooooooooo",
(char*)"ooooooooooooooo@@oooXooooooooooo",
(char*)"oooooooooooooo@+.@ooXooooooooooo",
(char*)"ooooooooooooo@++..@oXooooooooooo",
(char*)"ooooooooooooo@++..@oXooooooooooo",
(char*)"ooooooooooooo@++..@oXooooooooooo",
(char*)"ooooo@ooooooo@@@@@@Xoooooo@ooooo",
(char*)"ooooo+@ooooooXXXXXX@ooooo@+ooooo",
(char*)"oooooo+@oooo@+++O+Oooooo@+oooooo",
(char*)"ooooooo+@ooo@++O+++@ooo@+ooooooo",
(char*)"oooooooo+oo@++O+++++@oo+oooooooo",
(char*)"oooooooooo@++++++++++@oooooooooo",
(char*)"ooo@@@@@@o@++OOO+++++@o@@@@@@ooo",
(char*)"ooo++++++o@+OOOOO++++@o++++++ooo",
(char*)"oooooooooo@++OOO+++++@oooooooooo",
(char*)"oooooooo@oo@++++++++@oo@oooooooo",
(char*)"ooooooo@+ooo++++++++ooo+@ooooooo",
(char*)"oooooo@+ooooo@++++@ooooo+@oooooo",
(char*)"ooooo@+oooooooo@@oooooooo+@ooooo",
(char*)"ooooo+oooooooooooooooooooo+ooooo",
(char*)"oooooooooooooooooooooooooooooooo",
(char*)"oooooooooooooooooooooooooooooooo",
(char*)"oooooooooooooooooooooooooooooooo",
(char*)"oooooooooooooooooooooooooooooooo"
};
