/* XPM */
static const char* clip[] = {
/* width height num_colors chars_per_pixel */
(char*)"    48    48      225            2",
/* colors */
(char*)".. c #1c1e1c",
(char*)".# c #948e94",
(char*)".a c #ccc6d4",
(char*)".b c #545654",
(char*)".c c #bc9aac",
(char*)".d c #747274",
(char*)".e c #a4a2b4",
(char*)".f c #8c767c",
(char*)".g c #bcb2b4",
(char*)".h c #ece2f4",
(char*)".i c #6c5e64",
(char*)".j c #d4b2c4",
(char*)".k c #dcd6e4",
(char*)".l c #a49294",
(char*)".m c #3c3a34",
(char*)".n c #848284",
(char*)".o c #e4c6dc",
(char*)".p c #c4c2cc",
(char*)".q c #8c8284",
(char*)".r c #4c4a44",
(char*)".s c #64625c",
(char*)".t c #747684",
(char*)".u c #d4cedc",
(char*)".v c #6c6a64",
(char*)".w c #bcb2cc",
(char*)".x c #a49ab4",
(char*)".y c #9c8a8c",
(char*)".z c #645a5c",
(char*)".A c #8c869c",
(char*)".B c #9c9ea4",
(char*)".C c #d4bec4",
(char*)".D c #545664",
(char*)".E c #8c8a94",
(char*)".F c #9c8e94",
(char*)".G c #5c5254",
(char*)".H c #ccb2cc",
(char*)".I c #d4bedc",
(char*)".J c #dcc6d4",
(char*)".K c #ecd6e4",
(char*)".L c #44423c",
(char*)".M c #54524c",
(char*)".N c #6c6a7c",
(char*)".O c #a49a9c",
(char*)".P c #948284",
(char*)".Q c #bca6ac",
(char*)".R c #b4a2a4",
(char*)".S c #847a84",
(char*)".T c #d4cee4",
(char*)".U c #5c5e5c",
(char*)".V c #7c7a7c",
(char*)".W c #6c665c",
(char*)".X c #544a54",
(char*)".Y c #746a64",
(char*)".Z c #c4bacc",
(char*)".0 c #b49eac",
(char*)".1 c #b4a6c4",
(char*)".2 c #dcbed4",
(char*)".3 c #ccaebc",
(char*)".4 c #2c2e2c",
(char*)".5 c #8c8ea4",
(char*)".6 c #ccc6e4",
(char*)".7 c #5c564c",
(char*)".8 c #7c726c",
(char*)".9 c #f4eefc",
(char*)"#. c #e4dee4",
(char*)"## c #84869c",
(char*)"#a c #e4cedc",
(char*)"#b c #ccc2e4",
(char*)"#c c #4c4644",
(char*)"#d c #c4bac4",
(char*)"#e c #d4bed4",
(char*)"#f c #bcaac4",
(char*)"#g c #aca2a4",
(char*)"#h c #c4b2bc",
(char*)"#i c #e4d6dc",
(char*)"#j c #ac929c",
(char*)"#k c #8c8294",
(char*)"#l c #4c4a54",
(char*)"#m c #7c7e8c",
(char*)"#n c #acaec4",
(char*)"#o c #c4b2cc",
(char*)"#p c #aca2bc",
(char*)"#q c #5c5e64",
(char*)"#r c #847a74",
(char*)"#s c #9c9694",
(char*)"#t c #44424c",
(char*)"#u c #ac9aa4",
(char*)"#v c #948694",
(char*)"#w c #5c565c",
(char*)"#x c #7c727c",
(char*)"#y c #ecd2ec",
(char*)"#z c #ccbed4",
(char*)"#A c #242624",
(char*)"#B c #f4eaf4",
(char*)"#C c #6c626c",
(char*)"#D c #a492a4",
(char*)"#E c #443e3c",
(char*)"#F c #64666c",
(char*)"#G c #7c7a84",
(char*)"#H c #6c6a74",
(char*)"#I c #a49ebc",
(char*)"#J c #645e64",
(char*)"#K c #948a9c",
(char*)"#L c #9c9ab4",
(char*)"#M c #d4c2c4",
(char*)"#N c #ccbacc",
(char*)"#O c #dccae4",
(char*)"#P c #ecdee4",
(char*)"#Q c #b4a2b4",
(char*)"#R c #847e94",
(char*)"#S c #dccee4",
(char*)"#T c #74666c",
(char*)"#U c #746e74",
(char*)"#V c #948ea4",
(char*)"#W c #d4c6e4",
(char*)"#X c #343634",
(char*)"#Y c #fcf6fc",
(char*)"#Z c #9c92ac",
(char*)"#0 c #bcaeb4",
(char*)"#1 c #9c96ac",
(char*)"#2 c #b4aec4",
(char*)"#3 c #242224",
(char*)"#4 c #746e7c",
(char*)"#5 c #343234",
(char*)"#6 c #2c2a2c",
(char*)"#7 c #84727c",
(char*)"#8 c #b4aacc",
(char*)"#9 c #e4d2ec",
(char*)"a. c #aca6cc",
(char*)"a# c #d4c6cc",
(char*)"aa c #948a8c",
(char*)"ab c #848294",
(char*)"ac c #54525c",
(char*)"ad c #6c666c",
(char*)"ae c #c4badc",
(char*)"af c #fceefc",
(char*)"ag c #e4d6ec",
(char*)"ah c #7c7a94",
(char*)"ai c #ecdef4",
(char*)"aj c #b4aed4",
(char*)"ak c #949294",
(char*)"al c #ece6ec",
(char*)"am c #6c6263",
(char*)"an c #d4b6cc",
(char*)"ao c #a49697",
(char*)"ap c #3c3e3c",
(char*)"aq c #e4cae4",
(char*)"ar c #8c8684",
(char*)"as c #4c4e4c",
(char*)"at c #bcb6d4",
(char*)"au c #a49eaf",
(char*)"av c #645e5a",
(char*)"aw c #8c8a9e",
(char*)"ax c #9c929c",
(char*)"ay c #ccb6d1",
(char*)"az c #d4c2e0",
(char*)"aA c #dccad9",
(char*)"aB c #444644",
(char*)"aC c #a49ea4",
(char*)"aD c #b4a6ac",
(char*)"aE c #847e88",
(char*)"aF c #544e4d",
(char*)"aG c #746e6c",
(char*)"aH c #b4aabc",
(char*)"aI c #5c5a54",
(char*)"aJ c #7c7674",
(char*)"aK c #ac9eb0",
(char*)"aL c #aca6ac",
(char*)"aM c #c4b6c0",
(char*)"aN c #dcd2d8",
(char*)"aO c #c4b6cc",
(char*)"aP c #aca6c1",
(char*)"aQ c #ac9ea2",
(char*)"aR c #9c9ebc",
(char*)"aS c #dcd2e8",
(char*)"aT c #9492ab",
(char*)"aU c #d4cadf",
(char*)"aV c #545a54",
(char*)"aW c #545a64",
(char*)"aX c #d4c2d4",
(char*)"aY c #8c8694",
(char*)"aZ c #4c4e54",
(char*)"a0 c #44464c",
(char*)"a1 c #5c5a5c",
(char*)"a2 c #7c767c",
(char*)"a3 c #6c6e74",
(char*)"a4 c #948e9c",
(char*)"a5 c #74727c",
(char*)"a6 c #bcb2bc",
(char*)"a7 c #dcd6ec",
(char*)"a8 c #3c3a3c",
(char*)"a9 c #84828c",
(char*)"b. c #4c4a4c",
(char*)"b# c #646264",
(char*)"ba c #6c6a6c",
(char*)"bb c #d4becc",
(char*)"bc c #847674",
(char*)"bd c #444244",
(char*)"be c #545254",
(char*)"bf c #94828c",
(char*)"bg c #bca6b4",
(char*)"bh c #6c6664",
(char*)"bi c #746a6c",
(char*)"bj c #c4bad4",
(char*)"bk c #5c5654",
(char*)"bl c #7c7274",
(char*)"bm c #8486a4",
(char*)"bn c #e4cee4",
(char*)"bo c #4c464c",
(char*)"bp c #bcaacc",
(char*)"bq c #8c7e84",
(char*)"br c #e4d6e4",
(char*)"bs c #dccedc",
(char*)"bt c #c4b2d4",
(char*)"bu c #f4eafc",
(char*)"bv c #646674",
(char*)"bw c #7c7a8c",
(char*)"bx c #9c9abc",
(char*)"by c #d4c2cc",
(char*)"bz c #5c5a6c",
(char*)"bA c #ecdeec",
(char*)"bB c #94868c",
(char*)"bC c #848aa4",
(char*)"bD c #d4c6d4",
(char*)"bE c #8c7a7c",
/* pixels */
(char*)"a1a1aVa1a1aVa1a1aVa1a1aVa1a1aVa1a1aVa1a1aVa1a1aVa1a1aVa1a1aVa1a1aVa1a1aVa1a1aVa1a1aVa1a1aVa1a1aV",
(char*)"a1aVa1a1aVa1a1aVa1a1aVa1a1aVa1a1aVa1a1aVa1a1aVa1a1aVa1a1aVa1a1aVa1a1aVa1a1aVa1a1aVa1a1aVa1a1aVa1",
(char*)"a1.ba1.ba1.ba1#waV#waV#waV#waV#wa1.ba1.ba1.ba1.ba1#waV#waV#waV#waV#wa1.ba1.ba1.ba1.ba1#waV#wa1.b",
(char*)"a1aVa1a1aVa1a1aVa1a1aVa1a1aVa1a1aVa1a1aVa1a1aVa1a1aVa1aVa1a1aVa1a1aVa1aVa1a1aVa1a1a1.baV#waV.ba1",
(char*)"a1#waV#wa1.ba1.ba1.ba1#waV#waV#waV#waV#wa1.ba1.ba1#waV#wa1.ba1.ba1#waV#w.b#w.b.b.b#w.b.b.b#w.b.b",
(char*)"a1aVa1aVa1aVa1a1aVa1a1aVa1a1aVa1a1aVa1a1aVa1aVa1a1aVa1a1aVa1aVa1a1.U.nak.#.n#x#UaGbh.sav.7.Mbebe",
(char*)"a1#waV#wa1.ba1.ba1#waV#waV#wa1.ba1#waV#wa1.ba1#waV#waV#wa1.b#J.O#n#n.e#pbp.Han#e.2.Jbnbnbs#daJ.r",
(char*)"a1aVa1aVa1a1aVa1a1aVa1aVa1a1aVa1a1aVa1aVa1a1aVa1aVa1a1aVa1ad.BaR.1#h.H.c.FaJ#F#J.bbka1.vak#iaq.z",
(char*)"a1.ba1#waV#wa1.ba1#waV#wa1.ba1.ba1#waV#waV#wa1.ba1.ba1#wbhaTa..0a2#JasaBbdapapa8a8#Xa8#X.m#c#u#U",
(char*)"aVa1a1aVa1a1aVa1aVa1a1aVa1aVa1a1aVa1a1aVa1a1aVa1a1a1.b#Fbx#fbBa1b.aBapapa8a8#X#X#X#X#X#X#XaBawam",
(char*)"a1.ba1#waV#waV#wa1.ba1#waV#waV#wa1.ba1#waV#waV#waV.b.taPbgba.dak.B.eaC#7.L#X#5#5#5#Xa8#Xa8aFaYbk",
(char*)"aVa1a1aVa1aVa1a1aVa1aVa1a1aVa1a1aVa1a1aVa1aVa1a1.baTbt.laV.Naj.6aUaA.TaN.uaQ.7#5#X#Xa8ap#Ebi#m#c",
(char*)"a1.ba1#waV#wa1.ba1#waV#waV#wa1.ba1.ba1#waV#w.b#F#8.Hbl#l#Zay.Fbl#qaFas#w.V.K.JaF#Xa8apbd.raba5.L",
(char*)"aVa1a1aVa1a1aVa1a1aVa1aVa1a1aVa1aVa1a1aVa1.b.Aaz#QaZbzae.ya8.4#A#3#3#A#A.4ap.3bq#Xa8apbda1.AaIbd",
(char*)"a1.ba1.ba1.ba1.ba1#waV#wa1.ba1#wa1.ba1.b#qaP#O.qa0#R#e.i.4#A#3#3..#3#A#6.4#5ar#ka8#Xa8bd#G#G.rbd",
(char*)"aVa1a1aVa1a1aVa1a1aVa1a1aVa1aVa1aVa1.b#4#b#e#J#l.1.0bd.4#A#3....#3#6.4#5#Xa8bq.S.m#X#XbkbmavaBbd",
(char*)"a1.ba1#waV#wa1.ba1.ba1.ba1#waV#wa1beaT#9aQ#c.N.Ia2#X#6#3....#3#A#6#5a8apbd#c#v#Ua8#Xa8a9#GaB#Eap",
(char*)"aVa1a1aVa1aVa1aVa1a1aVa1a1aVa1.bb#.w#y#r#taTbbbe#5#A#3....#3#A#5#XapaBaBb..U#K.ba8a8b###aFapapa8",
(char*)"a1.ba1#waV#wa1.ba1.ba1#waV#w.bbwaSby.b.Dazaoa8.4#3#3..#3#3#6#5a8bdb.asaFbe.SaY.rapb..5baa8#Xa8#X",
(char*)"aVa1a1aVa1aVa1a1aVa1a1aVa1aI.eaiao#taE#abh#5#6#3......#A.4#XapaBb.bebe.ba1a4#FaB.XbCaEa8#5#X#X#X",
(char*)"a1.ba1#waV#waV#wa1.ba1.b#H#Wbr#T#laOa6aB.4#A#3..#3#3#6#5a8bdb.as.b.b.b.b#ka9.M.z##.Ebd#5#5#5#5#X",
(char*)"aVa1a1aVa1a1a1aVa1aVbkaYaiaMb.#Uag.qa8#6#3#3....#A#6#5a8bdb.aZbe.baVbka5aT.i#JaT#V.G.4.4.4#5#Xa8",
(char*)"a1.ba1.ba1.ba1#waV.z#2afar#cauaAbe#5#A#3....#3#6.4#Xapa0asbe.baI#w.U###L#Tacaw#vas.4#6#6.4.4#Xap",
(char*)"aVa1a1aVa1a1aVbka5aSbr.zbz#SaQap.4#A#3..#3#A#6#5a8bdasaF.b.b.ba1a3#L#D.Gbv.xa2a8.4#A#A#6.4#Xa8bd",
(char*)"a1.ba1#waV#wbkakbu#0#cabbAaG#5#6#3#3..#3#A.4#XapaBasbebe.ba1av###8bf#lbmaK#w#5#6#A#A#A#6#5a8bda0",
(char*)"aVa1a1aVa1avbjafbcaZbja##c.4#A#3....#A#A#5a8bdb.aZbe.b.ba1b##Iay#CaW.1#vap#5#A#A#3#3#6#5#XbdaB.M",
(char*)"a1.ba1.b.S#.bs.Ga3.haa#X.4#A#3..#3#A#6#Xapbdb.as.b.ba1.bbwae.0aZah#o#J#X.4#6#3#3#A#6.4a8bdaBaZbe",
(char*)"a1a1bkaK.9aQ.raubAa1#5#6#A#3..#3#6.4a8apb.asbe.b.baIa1#1#W.Sac.1#ubd#5#6#A..#3#A.4.4a8bdb.as.b.b",
(char*)".bbiaUalbi.z.kaH.L.4#A#3..#3#A#6#5a8bdb.as.b.ba1.ba5aOaM#wa3#zada8.4#6#3#3#3#A.4#XapaBasas.b.b#w",
(char*)"bB#BaN.GbB#BaG#X#6#A#3#3#3#A.4#XapaBasbe.b.b#waIaT#9.F#l.x.1#c#5#6#A#3#3#A#6#5a8apboasbe.b#w.ba1",
(char*)"aE.g#jaN#db.#5#6#A..#3#3#A#5a8bdb.asbe.b.bbkbaataAambv#zaJ.m.4#6#A#3#3#A.4#5apbdb.asbe.ba1.ba1aI",
(char*)"aI#raA.q.L#X#6#A..#3#A.4#Xapbdb.aZ.b.b#waIawaSaDaZ#V#Nbe#5.4#A#3#3#A#6.4.mapaBasbe.baV#waVa1aVa1",
(char*)".ba1#u.Y#c.4#6#3#3#A.4#X#Ea0asbe.bbk.bbh#2bAa2#w.Zaaa8#5#6#A#3#A#A#6#Xapbdb.asbe.b.b#wa1a1.ba1.b",
(char*)"a1bk.f#jbE#X#A#A#A#5#Xbdb.asbe.b.baIaEa7#d#waEaXa1#X.4#A#3#3#A#A#5#XapaBb.be.baV#wa1aVa1aVa1a1a1",
(char*)".b.baF.c.yaI.4#6.4#5apb.as.b.ba1amaP.haaacaHaLap#5#6#A#A#3#A#6#5a8aBb.aZ.b.b#w.ba1aV#wa1.ba1.ba1",
(char*)"a1aVbe.M.jbE.r.4#5a8bdb.be.b.zaE.uaN#J#4bDbh#X.4#6#A#3#A#A#5#XapaBb.be.bbk.ba1a1aVa1a1aVa1a1aVa1",
(char*)"a1.b.bbe.z.o.8.L#Xa8.La0.bam#gbu#uaF.e.gbd#5#6#A#3#3#A#6#5a8bdb.asbe.b.baVa1aV#wa1.ba1.ba1.ba1a1",
(char*)"a1a1.bbeasbE.3.Wa8a8apasbl.uagbi#J.abla8.4#A#A#3#3#6.4#XapaBb.aZ.b.b.ba1a1.ba1a1aVa1aVa1a1a1aVa1",
(char*)"a1.ba1.bbeb..Q.R.z.m.M#Dal#d.b.5.pb.#5.4#A#3#3#A#6.4a8#Ea0asbe.bbkaVa1a1aVa1a1.ba1#wa1.ba1.ba1#w",
(char*)"aVa1aVbk.bas.r.C.PaJ#z#Y#Kbz.p.q.m#5#A#3#3#3#A.4#XapaBb..Mbe.b#waV#wa1.ba1#waVa1a1aVa1aVa1a1aVa1",
(char*)"a1#wa1.ba1.baFbk#MaQ#Pa5bw#daF.4#6#A#3#3#A#6.4a8apboasaZ.b.ba1aVa1aVa1a1aVa1aV#waV#wa1.ba1.ba1.b",
(char*)"aVa1aVa1.b.bbeas.i.Qax.a#s#X#6#A#3#3#A#A#6#Xapbdb.asbe.ba1.ba1a1aV#wa1.ba1#waVa1a1aVa1a1aVa1a1a1",
(char*)"a1.ba1a1aV#w.b.MasaIa#av.4#6#3#3#3#A#A.4a8apaBasbe.b.ba1aIa1aV#wa1aVa1aVa1aVa1#waV#waV#wa1.ba1.b",
(char*)"aVa1a1.ba1a1.b.basb.bd.m#5#6#A#A#A#6#Xa8apb.aFbe.b.b#waVa1.ba1aVa1.ba1#waV#wa1aVa1aVa1a1aVa1aVa1",
(char*)"a1.ba1a1aVa1.ba1.basa0bd#X.4.4.4#5#XapaBasbebe.ba1a1aVa1.ba1a1.ba1a1aVa1a1aVa1#waV#wa1.ba1#wa1.b",
(char*)"aVa1a1aV#wa1aV#w.bbe.MaBbdapa8a8apbdb.aZbe.baV#waVa1#waVa1a1aVa1a1.ba1.ba1.ba1aVa1a1aVa1aVa1aVa1",
(char*)"a1.ba1aVa1aVa1a1.b.bbeaZasaBbdaBboasaFbe.b#wa1aVa1aVa1a1.ba1.ba1aVa1a1aVa1a1aV#waV#wa1.ba1.ba1#w",
(char*)"a1aV#wa1.ba1#waVa1#waVbebebeasbeasbe.baV#waVa1aV#wa1.ba1aVa1a1aVa1#waV#waV#wa1aVa1a1aVa1a1a1aVa1"
};
