/* XPM */
static char* computerClock[] = {
/* width height ncolors chars_per_pixel */
(char*)"32 32 8 1",
/* colors */
(char*)"  c black",
(char*)". c green",
(char*)"X c grey",
(char*)"o c white",
(char*)"O c yellow",
(char*)"+ c SlateGrey",
(char*)"@ c None",
(char*)"# c blue",
/* pixels */
(char*)"@@@@@@@@@@@@@@@@@@@@@    @@@@@@@",
(char*)"@@@@@@@@@@@@@@@@@@@  OOOO  @@@@@",
(char*)"@@@@@@@@@@@@@@@@@@ OOO OOOO @@@@",
(char*)"@@@@@@@@@@@@@@@@@@ OOO OOOO @@@@",
(char*)"@@@@@@@@@@@@@@@@@ OOOO OOOOO @@@",
(char*)"@@@@@@@@@@@@@@@@@ OOOO OOOOO @@@",
(char*)"@@                OOO    OOO @@@",
(char*)"@ ++XXXXXXXXXXXXX OOOO OOOOO @@@",
(char*)"@ +               OOOOOOOOOO @@@",
(char*)"@ X #############  OOOOOOOO @@@@",
(char*)"@ X ##########o### OOOOOOOO @@@@",
(char*)"@ X #########oo####  OOOO  @@@@@",
(char*)"@ X ########o#o#### X    @@@@@@@",
(char*)"@ X #######o##o#### X ++@@@@@@@@",
(char*)"@ X ######ooooo#### X ++@@@   @@",
(char*)"@ X #####o####o#### X ++@ @@@@ @",
(char*)"@ X ####o#####o#### X + @@@@@@@ ",
(char*)"@ X ##oooo###ooo### X ++@@@@@@@ ",
(char*)"@ X ############### X ++@@@@@@@ ",
(char*)"@ X                 X ++@@@   @ ",
(char*)"@ XXXXXXXXXXXXXX..XXX ++@@ ++X @",
(char*)"@@                   +++@ ++X+X ",
(char*)"                       + ++X+X+ ",
(char*)" XXXXXXXXXXXXXXXXXXXXXX ++++X++ ",
(char*)" XX X X X X X X X X XX +++++++  ",
(char*)" XXX X X X X X X X X X ++++++  +",
(char*)" XXXXXX X X X X X XXXX  ++++  ++",
(char*)" XXXXXXXXXXXXXXXXXXXXXX  ++  ++@",
(char*)" XXXXXXXXXXXXXXXXXXXXXX     ++@@",
(char*)"                        +++++@@@",
(char*)"@@++++++++++++++++++++++++++@@@@",
(char*)"@@+++++++++++++++++++++++++@@@@@"
};
