/* XPM */
static char* crashBurn[] = {
/* width height ncolors chars_per_pixel */
(char*)"32 32 7 1",
/* colors */
(char*)"  c LimeGreen",
(char*)". c cyan",
(char*)"X c grey",
(char*)"o c red",
(char*)"O c NavyBlue",
(char*)"+ c white",
(char*)"@ c yellow",
/* pixels */
(char*)"...............XX...............",
(char*)"...............XX...............",
(char*)"................................",
(char*)"...............XX...............",
(char*)"...............XX...............",
(char*)"................................",
(char*)"...............XX...............",
(char*)"...............XX...............",
(char*)"................................",
(char*)"...............XX...............",
(char*)"............OOOOOOOO............",
(char*)"............OOOOOOOO............",
(char*)"...............OO...............",
(char*)"...............OO...............",
(char*)"...............OO...............",
(char*)"..OOO..........OO...............",
(char*)"..OOOOO........OO...............",
(char*)"..OOOOOOO......OO...............",
(char*)"...OOOOOOOO....OO...............",
(char*)".....OOOOOOOO.OOOOOOOOOOOOOOO...",
(char*)".......OOOOOOO@OOOOOOOOOOOOOO...",
(char*)".........OOO@@OOOOOOOOOOOOOO....",
(char*)"...........OO@O++OOOOOOOOOO.....",
(char*)"..........o@OoO++Ooo@o..........",
(char*)".......@ooo@o@OOOO@oo@@o........",
(char*)"      @o@o@@@@OOOO@@@oo@        ",
(char*)"      o@o@o@o@@OO@@o@o@o@o      ",
(char*)"       o@o@o@@@@@@@o@@o@@       ",
(char*)"       @oo@o@o@o@oo@@oo@o       ",
(char*)"        @ooooo@@oooooo o        ",
(char*)"             @o@o@  o           ",
(char*)"                                "
};
