/* XPM */
static const char* crossEdge[] = {
/* width height ncolors chars_per_pixel */
(char*)"42 32 3 1",
/* colors */
(char*)"` c white",
(char*)"a c NavyBlue",
(char*)"n c NavyBlue",
/* pixels */
(char*)"``````````````````````````````````````````",
(char*)"``````````````````````````````````````````",
(char*)"``````````````````````````````````````````",
(char*)"``````````````````````````````````````````",
(char*)"``````````````````````````````````````````",
(char*)"``````````````````````````````````````````",
(char*)"``````````aaaaaa``````````````````````````",
(char*)"``````````aaaaaa``````````````````````````",
(char*)"``````````aaaaaa``````````````````````````",
(char*)"``````````aaaaaa````````````nnnnnnnnnnn```",
(char*)"``````````aaaaaa````````````nnnnnnnnnnn```",
(char*)"``````````aaaaaa````````````nnnnnnnnnnn```",
(char*)"````aaaaaaaaaaaaaaaaaa``````nnn```````````",
(char*)"````aaaaaaaaaaaaaaaaaa``````nnn```````````",
(char*)"````aaaaaaaaaaaaaaaaaa``````nnnnnnnnnnn```",
(char*)"````aaaaaaaaaaaaaaaaaa``````nnnnnnnnnnn```",
(char*)"````aaaaaaaaaaaaaaaaaa``````nnn```````````",
(char*)"````aaaaaaaaaaaaaaaaaa``````nnn```````````",
(char*)"``````````aaaaaa````````````nnnnnnnnnnn```",
(char*)"``````````aaaaaa````````````nnnnnnnnnnn```",
(char*)"``````````aaaaaa````````````nnnnnnnnnnn```",
(char*)"``````````aaaaaa``````````````````````````",
(char*)"``````````aaaaaa``````````````````````````",
(char*)"``````````aaaaaa``````````````````````````",
(char*)"``````````````````````````````````````````",
(char*)"``````````````````````````````````````````",
(char*)"``````````````````````````````````````````",
(char*)"``````````````````````````````````````````",
(char*)"``````````````````````````````````````````",
(char*)"``````````````````````````````````````````",
(char*)"``````````````````````````````````````````",
(char*)"``````````````````````````````````````````"
};
