/* XPM */
static const char* cross[] = {
/* width height ncolors chars_per_pixel */
(char*)"45 32 3 1",
/* colors */
(char*)"` c white",
(char*)"a c NavyBlue",
(char*)"n c NavyBlue",
/* pixels */
(char*)"`````````````````````````````````````````````",
(char*)"`````````````````````````````````````````````",
(char*)"`````````````````````````````````````````````",
(char*)"`````````````````````````````````````````````",
(char*)"`````````````````````````````````````````````",
(char*)"`````````````````````````````````````````````",
(char*)"``````````aaaaaa`````````````````````````````",
(char*)"``````````aaaaaa`````````````````````````````",
(char*)"``````````aaaaaa`````````````````````````````",
(char*)"``````````aaaaaa```````````nnnn```````nnnn```",
(char*)"``````````aaaaaa```````````nnnnn``````nnnn```",
(char*)"``````````aaaaaa```````````nnnnnn`````nnnn```",
(char*)"````aaaaaaaaaaaaaaaaaa`````nnnn`n`````nnnn```",
(char*)"````aaaaaaaaaaaaaaaaaa`````nnnn`nn````nnnn```",
(char*)"````aaaaaaaaaaaaaaaaaa`````nnnn``nn```nnnn```",
(char*)"````aaaaaaaaaaaaaaaaaa`````nnnn``nn```nnnn```",
(char*)"````aaaaaaaaaaaaaaaaaa`````nnnn`` n```nnnn```",
(char*)"````aaaaaaaaaaaaaaaaaa`````nnnn``` n``nnnn```",
(char*)"``````````aaaaaa```````````nnnn````nn`nnnn```",
(char*)"``````````aaaaaa```````````nnnn`````nnnnnn```",
(char*)"``````````aaaaaa```````````nnnn```````nnnn```",
(char*)"``````````aaaaaa`````````````````````````````",
(char*)"``````````aaaaaa`````````````````````````````",
(char*)"``````````aaaaaa`````````````````````````````",
(char*)"`````````````````````````````````````````````",
(char*)"`````````````````````````````````````````````",
(char*)"`````````````````````````````````````````````",
(char*)"`````````````````````````````````````````````",
(char*)"`````````````````````````````````````````````",
(char*)"`````````````````````````````````````````````",
(char*)"`````````````````````````````````````````````",
(char*)"`````````````````````````````````````````````"
};
