/* XPM */
static const char* cursorIcon[] = {
"32 32 4 1",
" 	c None",
".	c #000000",
"+	c #CECECE",
"@	c #1294F4",
"...............++...............",
"...............++...............",
"...............++...............",
"...............++...............",
"...............++...............",
"...............++...............",
"...............++...............",
"...............++...............",
"...............++...............",
"...............++...............",
".............@@@@@@.............",
"............@@@@@@@@............",
"...........@@@@@@@@@@...........",
"...........@@@@@@@@@@...........",
"+++++++++++@@@@@@@@@@+++++++++++",
"+++++++++++@@@@@@@@@@+++++++++++",
"...........@@@@@@@@@@...........",
"............@@@@@@@@............",
".............@@@@@@.............",
"...............++...............",
"...............++...............",
"...............++...............",
"...............++...............",
"...............++...............",
"...............++...............",
"...............++...............",
"...............++...............",
"...............++...............",
"...............++...............",
"...............++...............",
"...............++...............",
"...............++..............."};
