/* XPM */
static char* edit[] = {
/* width height ncolors chars_per_pixel */
(char*)"32 32 12 1",
/* colors */
(char*)"  c black",
(char*)". c tan",
(char*)"X c wheat",
(char*)"o c firebrick",
(char*)"O c peru",
(char*)"+ c sienna",
(char*)"@ c DarkSlateGrey",
(char*)"# c tomato",
(char*)"$ c white",
(char*)"% c gold",
(char*)"& c SlateGrey",
(char*)"* c orange",
/* pixels */
(char*)"$$$$$$$$$$$$$$$ $$$$$$$$$$$$$$$$",
(char*)"$$$$$$$$$$$$$$ X $$$$$$$$$$$$$$$",
(char*)"$$$$$$$$$$$$$ XXX $$$$$$$$$$$$$$",
(char*)"$$$$$$$$$$$$ XXXXX $$$$$$$$$$$$$",
(char*)"$$$$$$$$$$$ XXXXXXX $$$$$$$XX.$$",
(char*)"$$$$$$$$$$ XXXX XXXX $$$$$XX...$",
(char*)"$$$$$$$$$ XXXX@XXXXXX $$$ X..##.",
(char*)"$$$$$$$$ XXXX&XXX XXXX $ * .####",
(char*)"$$$$$$$ XXXX XXX@XXXXXXX% * ###+",
(char*)"$$$$$$ XXXX&XXX XXX XXX%%% * #+$",
(char*)"$$$$$ XXXX XXX&XXX XXX%%%** + $$",
(char*)"$$$$ XXXXXXXXXXXX&XXX%%%***o $$$",
(char*)"$$$ XXXX XXX&XXXXXXX%%%***oo$$$$",
(char*)"$$ XXXX@XXX XXX XXX%%%***ooX $$$",
(char*)"$ XXXX&XXXXXXX@XXX%%%***ooXXX $$",
(char*)" XXXX XXX XXX@XX**o%***ooXXXXX $",
(char*)"$ XXXXXX@XXX XXX***o**ooXXXXXXX ",
(char*)"$$ XXXX&XXX&XXXX  *OoooXXXXXXX $",
(char*)"$$$ XXXXXX&XXXXX   ++oXXXXXXX $$",
(char*)"$$$$ XXXX XXXXXX   ++XXXXXXX $$$",
(char*)"$$$$$ XXXXXXXXXXXXXXXXXXXXX $$$$",
(char*)"$$$$$$ XXXXXXXXXXXXXXXXXXX $$$$$",
(char*)"$$$$$$$ XXXXXXXXXXXXXXXXX $$$$$$",
(char*)"$$$$$$$$ XXXXXXXXXXXXXXX $$$$$$$",
(char*)"$$$$$$$$$ XXXXXXXXXXXXX $$$$$$$$",
(char*)"$$$$$$$$$$ XXXXXXXXXXX $$$$$$$$$",
(char*)"$$$$$$$$$$$ XXXXXXXXX $$$$$$$$$$",
(char*)"$$$$$$$$$$$$ XXXXXXX $$$$$$$$$$$",
(char*)"$$$$$$$$$$$$$ XXXXX $$$$$$$$$$$$",
(char*)"$$$$$$$$$$$$$$ XXX $$$$$$$$$$$$$",
(char*)"$$$$$$$$$$$$$$$ X $$$$$$$$$$$$$$",
(char*)"$$$$$$$$$$$$$$$$ $$$$$$$$$$$$$$$"
};
