/* XPM */
static char* filing[] = {
/* width height ncolors chars_per_pixel */
(char*)"32 32 5 1",
/* colors */
(char*)"  c black",
(char*)". c grey",
(char*)"X c white",
(char*)"o c yellow",
(char*)"O c SlateGrey",
/* pixels */
(char*)"O O OOOOOOOOOOOOOOOOOOOOOO O XXX",
(char*)"O O OOOOOOOOOOOOOOOOOOOOOO O XXX",
(char*)"O O                        O XXX",
(char*)"O OOOOOOOOOOOOOOOOOOOOOOOOOO XXX",
(char*)"O OOOOOOOOOOOOOOOOOOOOOOOOOO XXX",
(char*)"O O                        O XXX",
(char*)"O O                        O XXX",
(char*)"O O     XoXoXo             O XXX",
(char*)"O O    XoXoXoXo    XoXoXoX O XXX",
(char*)"O O  oXo          XoXoXoXoX  XXX",
(char*)"O O  XoXoXoXoXoXoXoXo        XXX",
(char*)"O O . XoXoXoXoXoXoXo oXoXoXo  XX",
(char*)"O O .. XoX                      ",
(char*)"O O ... Xo .................... ",
(char*)"O O  ... X .................... ",
(char*)"O O  O...  ......         ..... ",
(char*)"O O .OO... ...... XXXXXXX ..... ",
(char*)"O O ..OO.. ...... XXXXXXX ..... ",
(char*)"O O ...OO. ......         ..... ",
(char*)"O O  ...OO .................... ",
(char*)"O O   ...O .................... ",
(char*)"O O    ... .... .         ..... ",
(char*)"O OOOOO .. .................... ",
(char*)"O OOOOOO . .................... ",
(char*)"O O        .......... ......... ",
(char*)"O O OOOOOO .................... ",
(char*)"O O OOOOOO                      ",
(char*)"O O OOOOOOOOOOOOOOOOOOOOOO O XXX",
(char*)"O O OOOOOOO         OOOOOO O XXX",
(char*)"O O OOOOOOO ....... OOOOOO O XXX",
(char*)"O O OOOOOOO ....... OOOOOO O XXX",
(char*)"O O OOOOOOO         OOOOOO O XXX"
};
