/* XPM */
static char* floppy[] = {
/* width height ncolors chars_per_pixel */
(char*)"32 32 4 1",
/* colors */
(char*)"  c black",
(char*)". c grey",
(char*)"X c SeaGreen",
(char*)"o c white",
/* pixels */
(char*)"                                ",
(char*)"                                ",
(char*)"  XXXXXXXXXXXXXXXXXXXXXXXXXXXXX ",
(char*)"  XXXXooooooooooooooooooooXXXXX ",
(char*)"  XXXXo                 ooXXXXX ",
(char*)"  XXXXooooooooooooooooooooXXXXX ",
(char*)"  XXXXo                 ooXXXXX ",
(char*)"  XXXXooooooooooooooooooooXXXX  ",
(char*)"  XXXXXXXXXXXXXXXXXXXXXXXXXXXX  ",
(char*)"  XXXXXXXXXXXXXXXXXXXXXXXXXXXXX ",
(char*)"  XXXXXXXXXXXXXXXXXXXXXXXXXXXXX ",
(char*)"  XXXXXXXXXXXX     .XXXXXXXXXXX ",
(char*)"  XXXXXXXXXXX       .XXXXXXXXXX ",
(char*)"  XXXXXXXXXX   ...   .XXXXXXXXX ",
(char*)"  XXXXXXXXX   .   .   .XXXXXXXX ",
(char*)"  XXXXXXXXX  .     .  .XXXXXXXX ",
(char*)"  XXXXXXXXX  .     .  .XXXXXXXX ",
(char*)"  XXXXXXXXX  .     .  .XXXXXXXX ",
(char*)"  XXXXXXXXX   .   .   .XXXXXXXX ",
(char*)"  XXXXXXXXXX   ...   .  .XXXXXX ",
(char*)"  XXXXXXXXXXX       .X  .XXXXXX ",
(char*)"  XXXXXXXXXXXX     .XXX..XXXXXX ",
(char*)"  XXXXXXXXXXXXXXXXXXXXXXXXXXXXX ",
(char*)"  XXXXXXXXXXXXXX XXXXXXXXXXXXXX ",
(char*)"  XXXXXXXXXXXXX   .XXXXXXXXXXXX ",
(char*)"  XXXXXXXXXXXXX   .XXXXXXXXXXXX ",
(char*)"  XXXXXXXXXXXXX   .XXXXXXXXXXXX ",
(char*)"  XXXXXXXXXXXXX   .XXXXXXXXXXXX ",
(char*)"  XXXXXXXXXXXXX   .XXXXXXXXXXXX ",
(char*)"  XXXXXXXXXXXXXX .XXXXXXXXXXXXX ",
(char*)"  XXXXXXXXXXXXXXXXXXXXXXXXXXXXX ",
(char*)"                                "
};
