/* XPM */
static const char* pen[] = {
/* columns rows colors chars-per-pixel */
(char*)"32 32 10 1",
(char*)"  c black",
(char*)". c #006600",
(char*)"X c #663300",
(char*)"o c #444444",
(char*)"O c #777777",
(char*)"+ c #996633",
(char*)"@ c yellow",
(char*)"# c #bbbbbb",
(char*)"$ c white",
(char*)"% c None",
/* pixels */
(char*)"%%%%%%       %%%%%%%%%%%%%%%%%%%",
(char*)"%%%%%         %%%%%%%%%%%%%%%%%%",
(char*)"%%%%   OOOOo   %%%%%%%%%%%%%%%%%",
(char*)"%%%%  O###OOo  %%%%%%%%%%%%%%%%%",
(char*)"%%%   #$##O..   %%%%%%%%%%%%%%%%",
(char*)"%%%  o###O...o  %%%%%%%%%%%%%%%%",
(char*)"%%%  o###O...o  %%%%%%%%%%%%%%%%",
(char*)"%%%  o###O...o  %%%%%%%%%%%%%%%%",
(char*)"%%%  o###O...o  %%%%%%%%%%%%%%%%",
(char*)"%%%  o###O...o  %%%%%%%%%%%%%%%%",
(char*)"%%%  o###O...o  %%%%%%%%%%%%%%%%",
(char*)"%%%  o###O...o  %%%%%%%%%%%%%%%%",
(char*)"%%%  o###O...o  %%%%%%%%%%%%%%%%",
(char*)"%%%  o###O...o  %%%%%%%%%%%%%%%%",
(char*)"%%%  +$$XXXX+X  %%%%%%%%%%%%%%%%",
(char*)"%%%  +$$XXXX+X  %%%%%%%%%%%%%%%%",
(char*)"%%%    o   X    %%%%%%%%%%%%%%%%",
(char*)"%%%%   o   X   %%%%%%%%%%%%%%%%%",
(char*)"%%%%%  o   X  %%%%%%%%%%%%%%%%%%",
(char*)"%%%%%  @$XX+  %%%%%%%%%%%%%%%%%%",
(char*)"%%%%  +@$XXX+  %%%%%%%%%%%%%%%%%",
(char*)"%%%%  +$$XXXX  %%%%%%%%%%%%%%%%%",
(char*)"%%%%  +$$++XX  %%%%%%%%%%%%%%%%%",
(char*)"%%%%  X$   XX  %%%%%%%%%%%%%%%%%",
(char*)"%%%%  X$$ +XX  %%%%%%%%%%%%%%%%%",
(char*)"%%%%%  #$ @X  %%%%%%%%%%%%%%%%%%",
(char*)"%%%%%   # X   %%%%%%%%%%%%%%%%%%",
(char*)"%%%%%%  # X  %%%%%%%%%%%%%%%%%%%",
(char*)"%%%%%%%     %%%%%%%%%%%%%%%%%%%%",
(char*)"%%%%%%%%   %%%%%%%%%%%%%%%%%%%%%",
(char*)"%%%%%%%%%              %%%%%%%%%",
(char*)"%%%%%%%%%              %%%%%%%%%"
};
