/* XPM */
static char* printerIcon[] = {
/* width height ncolors chars_per_pixel */
(char*)"32 32 7 1",
/* colors */
(char*)"  c black",
(char*)". c grey",
(char*)"X c sienna",
(char*)"o c DarkSlateGrey",
(char*)"O c white",
(char*)"+ c yellow",
(char*)"@ c None",
/* pixels */
(char*)"@@@@@@@@@@@@@@@@@@@@@@@@@@@@@@@@",
(char*)"@@@@@@@@@@@@@@@@@@@@@@@@@@@@@@@@",
(char*)"@@@@@@@@@@@@                    ",
(char*)"@@@@@@@@@@@@ OOOOOOOOOOOOOOOOOO ",
(char*)"@@@@@@@@@@@ OOOOOOOOOOOOOOOOOO  ",
(char*)"@@@@@@@@@@@ OOoooooooooooooOOO  ",
(char*)"@@@@@@@@@@ OOOOOOOOOOOOOOOOOO . ",
(char*)"@@@@@@@@@@ OOoooooooooooooOOO . ",
(char*)"@@@@@@@@@ OOOOOOOOOOOOOOOOOO .. ",
(char*)"@@@@@@@@@ OOoooooooooooooOOO .. ",
(char*)"@@@@@@@@ OOOOOOOOOOOOOOOOOO     ",
(char*)"@@@@@@@@ OOooooooooooooOOOO @@@@",
(char*)"@@@@@@@ OOOOOOOOOOOOOOOOOO @@@@@",
(char*)"@@@@@   OOOOOOOOOOOOOOOOOO      ",
(char*)"@@@@ + OOOOOOOOOOOOOOOOOO X+X+  ",
(char*)"@@@ +X                    oX+ + ",
(char*)"@@ +XoooooooooooooooooooooX+ +X ",
(char*)"@ +X+X+X+X+X+X+X+X+X+X+X+X+ +X+ ",
(char*)"                           +X+X ",
(char*)" X+X+X+X+X+X+X+X+X+X+X+X+X X+X+ ",
(char*)" +X+X+X+X+X+X+X        OX+ +X+X ",
(char*)" X+X+X+X+X+X+X+ oooooooO+X X+X+ ",
(char*)" +X+X+X+X+X+X+X oooooooOX+ +X+X ",
(char*)" X+X+X+X+X+X+X+ oooooooO+X X+X @",
(char*)" +X+X+X+X+X+X+X OOOOOOOOX+ +X oo",
(char*)" X+X+X+X+X+X+X+X+X+X+X+X+X X oo@",
(char*)" +X+X+X+X+X+X+X+X+X+X+X+X+  oo@@",
(char*)"                           oo@@@",
(char*)"@@oooooooooooooooooooooooooo@@@@",
(char*)"@@@oooooooooooooooooooooooo@@@@@",
(char*)"@@@@@@@@@@@@@@@@@@@@@@@@@@@@@@@@",
(char*)"@@@@@@@@@@@@@@@@@@@@@@@@@@@@@@@@"
};
