/* XPM */
static const char* runner[] = {
/* width height ncolors chars_per_pixel */
(char*)"32 32 6 1",
/* colors */
(char*)" 	c grey",
(char*)".	c slate grey",
(char*)"X	c black",
(char*)"o	c yellow",
(char*)"O	c lime green",
(char*)"+	c blue",
/* pixels */
(char*)"                                ",
(char*)"                                ",
(char*)"                                ",
(char*)"                                ",
(char*)"                                ",
(char*)"                      ..        ",
(char*)"                     .XXX       ",
(char*)"              ....  .XXoX.      ",
(char*)"              .oo....Xooo.      ",
(char*)"            ..ooooOOOooo.       ",
(char*)"           ..oo.oOOOOO..        ",
(char*)"          ..oo. .OOOOo.   ..    ",
(char*)"         .oo.. .OOOOoo.  .oo.   ",
(char*)"         .oo. .OOOOO.oo. .oo.   ",
(char*)"          .. .OOOOO...oo.o..    ",
(char*)"            .++OOO..  .oo.      ",
(char*)"           .++++O.     ..       ",
(char*)"          .oo+++.               ",
(char*)"         .ooo.+oo.              ",
(char*)"    .....ooo. .ooo.             ",
(char*)"    .Xooooo.   ..oo.            ",
(char*)"   .XX.....    .oo.             ",
(char*)"   .X.        .oo.              ",
(char*)"              .o.               ",
(char*)"             .X..               ",
(char*)"  .........  .XXX. ...          ",
(char*)"      ......  ...   .....       ",
(char*)"                                ",
(char*)"                                ",
(char*)"                                ",
(char*)"                                ",
(char*)"                                "};
